Running SS (AS)05b_kinetics.mot																		
nRows=82																		
nColumns=19																		
																		
name Running SS (AS)05b_kinetics.mot																		
datacolumns 19																		
datarows 82																		
range 0.208333333 0.283333333																		
endheader																		
time	1_ground_force_vx	1_ground_force_vy	1_ground_force_vz	1_ground_force_px	1_ground_force_py	1_ground_force_pz	2_ground_force_vx	2_ground_force_vy	2_ground_force_vz	2_ground_force_px	2_ground_force_py	2_ground_force_pz	1_ground_torque_x	1_ground_torque_y	1_ground_torque_z	2_ground_torque_x	2_ground_torque_y	2_ground_torque_z
0.208333333	103.291209	1591.779103	-52.13130242	0.383773468	0	0.285146725	0	0	0	0	0	0	0	0.635165357	0	0	0	0
0.209259259	107.6479456	1585.668075	-51.35603159	0.384146926	0	0.28513228	0	0	0	0	0	0	0	0.564797238	0	0	0	0
0.210185185	111.9883148	1579.368809	-50.56087225	0.384515258	0	0.285114984	0	0	0	0	0	0	0	0.492905091	0	0	0	0
0.211111111	116.3067972	1572.877854	-49.74666761	0.384878892	0	0.285094866	0	0	0	0	0	0	0	0.419556219	0	0	0	0
0.212037037	120.5980256	1566.191792	-48.9142434	0.385238259	0	0.285071955	0	0	0	0	0	0	0	0.344821426	0	0	0	0
0.212962963	124.8568115	1559.307275	-48.06440636	0.385593792	0	0.285046285	0	0	0	0	0	0	0	0.268774703	0	0	0	0
0.213888889	129.0781691	1552.221043	-47.19794405	0.38594592	0	0.285017889	0	0	0	0	0	0	0	0.19149293	0	0	0	0
0.214814815	133.2573349	1544.929956	-46.31562576	0.386295068	0	0.284986803	0	0	0	0	0	0	0	0.113055597	0	0	0	0
0.215740741	137.3897836	1537.431012	-45.41820444	0.386641654	0	0.284953063	0	0	0	0	0	0	0	0.033544536	0	0	0	0
0.216666667	141.4712405	1529.721368	-44.50641959	0.386986084	0	0.284916706	0	0	0	0	0	0	0	-0.046956313	0	0	0	0
0.217592593	145.4976894	1521.798361	-43.5810008	0.387328754	0	0.284877768	0	0	0	0	0	0	0	-0.128361111	0	0	0	0
0.218518519	149.4653782	1513.659518	-42.64267186	0.387670044	0	0.284836289	0	0	0	0	0	0	0	-0.210582303	0	0	0	0
0.219444444	153.3708195	1505.302571	-41.69215518	0.388010319	0	0.284792307	0	0	0	0	0	0	0	-0.293530749	0	0	0	0
0.22037037	157.2107891	1496.725461	-40.73017648	0.388349926	0	0.284745859	0	0	0	0	0	0	0	-0.377115828	0	0	0	0
0.221296296	160.982321	1487.926345	-39.75746939	0.388689193	0	0.284696985	0	0	0	0	0	0	0	-0.461245499	0	0	0	0
0.222222222	164.6826998	1478.903599	-38.77478008	0.389028431	0	0.284645725	0	0	0	0	0	0	0	-0.545826322	0	0	0	0
0.223148148	168.3094507	1469.655815	-37.78287162	0.389367928	0	0.284592117	0	0	0	0	0	0	0	-0.630763449	0	0	0	0
0.224074074	171.8603272	1460.1818	-36.78252809	0.389707953	0	0.284536202	0	0	0	0	0	0	0	-0.715960586	0	0	0	0
0.225	175.3332969	1450.480568	-35.77455837	0.390048757	0	0.284478021	0	0	0	0	0	0	0	-0.801319931	0	0	0	0
0.225925926	178.7265257	1440.551336	-34.75979954	0.390390567	0	0.284417615	0	0	0	0	0	0	0	-0.886742087	0	0	0	0
0.226851852	182.0383609	1430.393514	-33.73911984	0.390733593	0	0.284355029	0	0	0	0	0	0	0	-0.972125962	0	0	0	0
0.227777778	185.2673128	1420.006699	-32.71342131	0.391078023	0	0.284290305	0	0	0	0	0	0	0	-1.05736867	0	0	0	0
0.228703704	188.4120352	1409.390662	-31.68364184	0.39142403	0	0.284223491	0	0	0	0	0	0	0	-1.142365412	0	0	0	0
0.22962963	191.4713065	1398.545341	-30.65075696	0.391771766	0	0.284154634	0	0	0	0	0	0	0	-1.227009378	0	0	0	0
0.230555556	194.4440089	1387.470831	-29.61578119	0.392121368	0	0.284083786	0	0	0	0	0	0	0	-1.311191658	0	0	0	0
0.231481482	197.3291084	1376.167377	-28.57976904	0.392472956	0	0.284011001	0	0	0	0	0	0	0	-1.394801188	0	0	0	0
0.232407407	200.1256348	1364.63536	-27.54381574	0.392826638	0	0.283936334	0	0	0	0	0	0	0	-1.477724722	0	0	0	0
0.233333333	202.8326616	1352.875299	-26.50905787	0.393182506	0	0.283859848	0	0	0	0	0	0	0	-1.559846863	0	0	0	0
0.234259259	205.4492872	1340.887837	-25.47667369	0.393540645	0	0.283781606	0	0	0	0	0	0	0	-1.64105015	0	0	0	0
0.235185185	207.9746165	1328.673742	-24.44788347	0.393901125	0	0.283701679	0	0	0	0	0	0	0	-1.721215207	0	0	0	0
0.236111111	210.4077435	1316.233903	-23.42394978	0.394264011	0	0.283620141	0	0	0	0	0	0	0	-1.800220974	0	0	0	0
0.237037037	212.7477361	1303.569328	-22.40617761	0.39462936	0	0.283537072	0	0	0	0	0	0	0	-1.877945018	0	0	0	0
0.237962963	214.9936213	1290.681145	-21.39591446	0.394997226	0	0.283452558	0	0	0	0	0	0	0	-1.954263917	0	0	0	0
0.238888889	217.1443734	1277.570607	-20.39455026	0.395367657	0	0.283366693	0	0	0	0	0	0	0	-2.029053732	0	0	0	0
0.239814815	219.1989039	1264.239097	-19.4035169	0.395740702	0	0.283279575	0	0	0	0	0	0	0	-2.102190534	0	0	0	0
0.240740741	221.1560531	1250.688134	-18.42428745	0.396116407	0	0.283191312	0	0	0	0	0	0	0	-2.173550985	0	0	0	0
0.241666667	223.0145847	1236.919382	-17.45837468	0.396494822	0	0.283102018	0	0	0	0	0	0	0	-2.243012968	0	0	0	0
0.242592593	224.7731827	1222.934663	-16.50732897	0.396875999	0	0.283011817	0	0	0	0	0	0	0	-2.310456215	0	0	0	0
0.243518519	226.4304498	1208.735972	-15.57273515	0.397259996	0	0.28292084	0	0	0	0	0	0	0	-2.375762958	0	0	0	0
0.244444444	227.9849098	1194.325491	-14.65620845	0.397646875	0	0.28282923	0	0	0	0	0	0	0	-2.438818541	0	0	0	0
0.24537037	229.4350103	1179.705604	-13.75938917	0.398036706	0	0.282737135	0	0	0	0	0	0	0	-2.499512007	0	0	0	0
0.246296296	230.7791294	1164.878925	-12.88393613	0.398429566	0	0.282644715	0	0	0	0	0	0	0	-2.557736625	0	0	0	0
0.247222222	232.0155825	1149.848308	-12.03151886	0.398825544	0	0.282552142	0	0	0	0	0	0	0	-2.613390352	0	0	0	0
0.248148148	233.1426324	1134.61688	-11.20380846	0.399224737	0	0.282459594	0	0	0	0	0	0	0	-2.66637622	0	0	0	0
0.249074074	234.1585002	1119.188058	-10.40246732	0.399627253	0	0.282367263	0	0	0	0	0	0	0	-2.716602642	0	0	0	0
0.25	235.0613777	1103.565573	-9.629137651	0.400033211	0	0.282275347	0	0	0	0	0	0	0	-2.763983645	0	0	0	0
0.250925926	235.8494413	1087.7535	-8.885429162	0.400442743	0	0.282184059	0	0	0	0	0	0	0	-2.808439033	0	0	0	0
0.251851852	236.5208667	1071.756277	-8.172905893	0.400855991	0	0.282093618	0	0	0	0	0	0	0	-2.849894491	0	0	0	0
0.252777778	237.0738448	1055.578732	-7.49307251	0.401273111	0	0.282004255	0	0	0	0	0	0	0	-2.888281635	0	0	0	0
0.253703704	237.5065986	1039.226105	-6.847360219	0.401694269	0	0.281916209	0	0	0	0	0	0	0	-2.923538041	0	0	0	0
0.25462963	237.8174	1022.70407	-6.237112549	0.402119644	0	0.281829729	0	0	0	0	0	0	0	-2.955607239	0	0	0	0
0.255555556	238.0045878	1006.018755	-5.663571193	0.402549427	0	0.281745073	0	0	0	0	0	0	0	-2.984438707	0	0	0	0
0.256481482	238.0665856	989.1767563	-5.127862146	0.402983817	0	0.281662504	0	0	0	0	0	0	0	-3.009987866	0	0	0	0
0.257407407	238.0019197	972.1851574	-4.630982335	0.403423025	0	0.281582294	0	0	0	0	0	0	0	-3.032216077	0	0	0	0
0.258333333	237.809237	955.0515379	-4.173786929	0.403867273	0	0.281504721	0	0	0	0	0	0	0	-3.051090659	0	0	0	0
0.259259259	237.4873222	937.7839829	-3.756977518	0.404316787	0	0.281430068	0	0	0	0	0	0	0	-3.066584915	0	0	0	0
0.260185185	237.0351147	920.3910877	-3.38109132	0.404771806	0	0.28135862	0	0	0	0	0	0	0	-3.078678171	0	0	0	0
0.261111111	236.4517244	902.8819588	-3.046491568	0.405232573	0	0.281290667	0	0	0	0	0	0	0	-3.087355834	0	0	0	0
0.262037037	235.7364472	885.2662119	-2.753359221	0.405699334	0	0.281226499	0	0	0	0	0	0	0	-3.092609453	0	0	0	0
0.262962963	234.8887784	867.5539651	-2.501686107	0.406172344	0	0.281166407	0	0	0	0	0	0	0	-3.094436796	0	0	0	0
0.263888889	233.9084256	849.7558284	-2.291269629	0.406651857	0	0.281110679	0	0	0	0	0	0	0	-3.092841931	0	0	0	0
0.264814815	232.7953199	831.8828889	-2.1217091	0.407138132	0	0.2810596	0	0	0	0	0	0	0	-3.087835316	0	0	0	0
0.265740741	231.549626	813.946692	-1.992403794	0.407631425	0	0.281013451	0	0	0	0	0	0	0	-3.079433898	0	0	0	0
0.266666667	230.1717498	795.9592179	-1.902552758	0.408131994	0	0.280972507	0	0	0	0	0	0	0	-3.067661204	0	0	0	0
0.267592593	228.6623445	777.9328542	-1.851156402	0.408640091	0	0.280937032	0	0	0	0	0	0	0	-3.052547447	0	0	0	0
0.268518519	227.0223152	759.880365	-1.837019892	0.409155968	0	0.280907282	0	0	0	0	0	0	0	-3.03412962	0	0	0	0
0.269444444	225.2528198	741.8148552	-1.858758316	0.409679869	0	0.280883502	0	0	0	0	0	0	0	-3.012451589	0	0	0	0
0.27037037	223.3552698	723.7497328	-1.914803594	0.410212034	0	0.280865919	0	0	0	0	0	0	0	-2.987564181	0	0	0	0
0.271296296	221.3313264	705.6986664	-2.003413054	0.410752694	0	0.280854748	0	0	0	0	0	0	0	-2.95952526	0	0	0	0
0.272222222	219.1828966	687.6755416	-2.12267961	0.411302075	0	0.280850186	0	0	0	0	0	0	0	-2.928399783	0	0	0	0
0.273148148	216.9121256	669.6944143	-2.270543421	0.411860389	0	0.280852408	0	0	0	0	0	0	0	-2.89425984	0	0	0	0
0.274074074	214.5213882	651.7694621	-2.444804909	0.412427844	0	0.280861567	0	0	0	0	0	0	0	-2.857184668	0	0	0	0
0.275	212.0132784	633.9149353	-2.643139	0.413004634	0	0.280877795	0	0	0	0	0	0	0	-2.817260634	0	0	0	0
0.275925926	209.3905977	616.145106	-2.863110453	0.413590945	0	0.280901194	0	0	0	0	0	0	0	-2.774581184	0	0	0	0
0.276851852	206.656343	598.4742176	-3.102190104	0.414186954	0	0.28093184	0	0	0	0	0	0	0	-2.729246759	0	0	0	0
0.277777778	203.8136936	580.9164342	-3.357771902	0.414792825	0	0.280969778	0	0	0	0	0	0	0	-2.681364672	0	0	0	0
0.278703704	200.8659989	563.4857909	-3.62719056	0.415408715	0	0.281015019	0	0	0	0	0	0	0	-2.631048937	0	0	0	0
0.27962963	197.8167664	546.1961449	-3.907739707	0.416034772	0	0.281067542	0	0	0	0	0	0	0	-2.578420064	0	0	0	0
0.280555556	194.6696506	529.0611282	-4.196690392	0.416671134	0	0.281127286	0	0	0	0	0	0	0	-2.523604797	0	0	0	0
0.281481482	191.4284437	512.0941025	-4.491309814	0.417317933	0	0.281194152	0	0	0	0	0	0	0	-2.46673581	0	0	0	0
0.282407407	188.0970672	495.3081158	-4.78888016	0.417975292	0	0.281268003	0	0	0	0	0	0	0	-2.407951361	0	0	0	0
0.283333333	184.679566	478.7158619	-5.086717423	0.418643327	0	0.281348656	0	0	0	0	0	0	0	-2.347394897	0	0	0	0
